<svg id="Capa_1" xmlns="http://www.w3.org/2000/svg" xmlns:xlink="http://www.w3.org/1999/xlink" x="0px" y="0px"
	 viewBox="0 0 493.3 493.3" style="enable-background:new 0 0 493.3 493.3;" xml:space="preserve">
<style type="text/css">
	.st0{fill:#333333;}
</style>
<g>
	<path class="st0" d="M493.3,229h-57.4C427.5,138.9,356,66.7,266.1,57.5V0H229v57.4c-90.2,8.3-162.3,79.9-171.5,169.8H0v37.1h57.4
		c8.3,90.2,79.9,162.3,169.8,171.5v57.5h37.1v-57.4c90.2-8.3,162.3-79.9,171.5-169.8h57.5V229z M264.2,398.6v-53.7h-37.1v53.4
		c-69.4-8.9-124.4-64.4-132.5-134.1h53.7v-37.1H94.9c8.9-69.4,64.4-124.4,134.1-132.5v53.7h37.1V94.9
		c69.4,8.9,124.4,64.4,132.5,134.1h-53.7v37.1h53.4C389.5,335.5,333.9,390.5,264.2,398.6z"/>
	<circle class="st0" cx="247.6" cy="246.6" r="27.8"/>
</g>
</svg>
